<?xml version="1.0" standalone="no"?>
<!DOCTYPE svg PUBLIC "-//W3C//DTD SVG 20010904//EN"
 "http://www.w3.org/TR/2001/REC-SVG-20010904/DTD/svg10.dtd">
<svg version="1.0" xmlns="http://www.w3.org/2000/svg"
 width="125.000000pt" height="124.000000pt" viewBox="0 0 125.000000 124.000000"
 preserveAspectRatio="xMidYMid meet">

<g transform="translate(0.000000,124.000000) scale(0.100000,-0.100000)"
fill="#FFFFFF" stroke="none">
<path d="M536 1110 c-42 -51 -79 -103 -82 -117 -5 -17 -11 -22 -23 -18 -9 4
-71 22 -139 40 l-122 33 0 -119 c0 -132 11 -172 55 -207 41 -32 83 -36 148
-15 l56 19 20 -27 c12 -16 21 -31 21 -34 0 -3 -66 -6 -147 -7 l-148 -2 155 -6
154 -5 18 -47 c38 -103 42 -217 12 -347 -5 -18 -3 -23 4 -16 12 12 32 113 32
167 0 36 2 38 30 38 l30 0 0 -100 c0 -60 4 -100 10 -100 6 0 10 40 10 101 l0
100 28 -3 c25 -3 27 -7 30 -53 3 -69 22 -156 31 -150 5 2 2 28 -5 57 -8 29
-14 74 -14 100 l0 48 116 0 116 0 35 35 c33 33 35 39 30 82 -4 37 -12 54 -36
75 -29 26 -37 28 -117 28 l-85 0 22 33 c12 17 24 33 25 35 1 2 15 -3 31 -11
49 -26 114 -30 153 -10 61 32 71 63 68 211 l-3 129 -115 -32 c-63 -17 -125
-35 -136 -38 -18 -6 -23 -3 -28 17 -6 24 -139 198 -156 204 -5 2 -43 -38 -84
-88z m74 13 c0 -45 0 -46 -20 -28 -11 10 -20 23 -20 28 0 10 29 47 37 47 1 0
3 -21 3 -47z m38 27 c10 -17 9 -25 -4 -45 -9 -14 -18 -25 -20 -25 -2 0 -4 20
-4 45 0 49 8 56 28 25z m-38 -127 l0 -34 -47 32 c-27 18 -49 33 -51 35 -2 1 7
14 19 28 l23 26 28 -27 c20 -19 28 -37 28 -60z m90 62 c13 -14 22 -26 19 -28
-2 -1 -25 -17 -51 -35 l-48 -33 0 31 c0 28 35 90 50 90 4 0 17 -11 30 -25z
m70 -96 c0 -6 -131 -69 -143 -69 -4 0 -7 12 -7 28 1 21 12 35 53 64 l52 37 22
-27 c13 -15 23 -30 23 -33z m-209 15 c35 -26 49 -43 49 -60 0 -30 -3 -30 -84
6 l-66 30 15 30 c9 17 20 30 26 30 6 0 33 -16 60 -36z m-313 10 c16 -5 22 -14
22 -36 0 -33 -10 -30 -40 12 -22 31 -20 34 18 24z m790 -3 c8 -4 12 -21 10
-36 -2 -22 -10 -31 -32 -36 -35 -10 -54 6 -48 40 7 38 39 52 70 32z m-809 -41
l32 -40 -33 7 c-18 3 -35 7 -37 9 -7 6 -7 64 0 64 3 0 20 -18 38 -40z m120 14
c2 -1 -3 -26 -10 -53 l-13 -51 -23 22 c-16 15 -23 33 -23 61 0 38 0 39 33 32
17 -4 34 -9 36 -11z m601 -21 c0 -41 -35 -100 -43 -73 -26 88 -26 91 -4 100
40 16 47 12 47 -27z m-541 6 c17 -6 31 -15 31 -20 0 -5 -15 -36 -33 -69 -33
-58 -34 -60 -51 -41 -15 17 -16 26 -5 80 6 34 15 61 19 61 4 0 21 -5 39 -11z
m474 -45 c15 -51 15 -58 0 -80 -8 -13 -17 -24 -18 -24 -5 0 -77 131 -73 134
11 7 55 25 64 25 6 1 18 -24 27 -55z m-277 -24 c2 0 4 -16 4 -35 0 -41 -14
-44 -76 -16 -47 22 -84 64 -84 97 l0 23 76 -34 c42 -19 78 -35 80 -35z m157 2
c-29 -39 -65 -62 -106 -69 l-38 -6 3 37 c3 36 6 39 78 71 72 31 75 32 78 12 2
-11 -5 -31 -15 -45z m-473 -8 l25 -24 -68 0 -67 0 0 31 c0 31 0 31 43 24 24
-4 53 -17 67 -31z m760 7 c0 -29 -1 -29 -60 -33 -39 -2 -60 1 -60 8 0 17 32
42 60 47 56 10 60 8 60 -22z m-230 -33 c16 -29 30 -56 30 -59 0 -4 -9 -18 -21
-33 -25 -32 -39 -24 -70 36 -19 38 -19 38 1 60 11 12 20 28 20 35 0 23 9 14
40 -39z m-351 11 c20 -26 22 -33 12 -57 -7 -15 -20 -38 -30 -51 l-19 -25 -25
29 -24 29 26 53 c14 29 28 53 31 52 3 0 16 -14 29 -30z m-127 -46 c27 -25 23
-30 -35 -36 -29 -4 -67 -9 -84 -13 -29 -6 -31 -4 -35 30 l-4 36 70 0 c51 0 74
-4 88 -17z m708 -5 c0 -44 -10 -48 -90 -36 -41 6 -76 13 -78 14 -2 1 1 12 8
23 9 18 20 21 85 21 71 0 75 -1 75 -22z m-472 -5 l32 -5 0 -79 0 -79 -60 0
c-57 0 -60 1 -84 37 l-25 36 29 41 c17 22 30 46 30 54 0 10 6 12 23 7 12 -4
37 -9 55 -12z m166 -18 c10 -19 27 -42 37 -51 17 -15 16 -18 -9 -55 -27 -39
-28 -39 -87 -36 l-60 2 0 75 0 75 38 6 c20 3 40 9 44 12 12 12 18 7 37 -28z
m-350 -37 c22 -31 21 -34 -15 -47 -60 -21 -115 -14 -151 18 l-32 29 64 10
c103 15 117 14 134 -10z m567 11 c38 -7 69 -15 69 -20 0 -4 -12 -17 -26 -28
-30 -24 -91 -28 -145 -10 -45 16 -44 14 -22 43 21 29 29 30 124 15z m-351
-229 l0 -100 -28 0 c-26 0 -28 4 -48 83 -11 45 -24 90 -28 100 -7 15 -2 17 48
17 l56 0 0 -100z m119 78 c-16 -30 -39 -117 -39 -150 0 -24 -4 -28 -30 -28
-17 0 -30 5 -30 13 0 6 -3 47 -5 91 -3 43 -2 82 1 87 3 5 30 9 60 9 53 0 54
-1 43 -22z m222 -6 c44 -39 46 -99 6 -139 -26 -27 -32 -28 -143 -31 l-117 -4
8 48 c4 27 16 72 27 101 l19 53 85 0 c78 0 86 -2 115 -28z"/>
<path d="M1000 985 c-13 -14 -21 -27 -18 -30 2 -3 15 6 28 20 13 14 21 27 18
30 -2 3 -15 -6 -28 -20z"/>
<path d="M84 145 c-13 -31 -24 -59 -24 -64 0 -5 -7 -12 -16 -15 -8 -3 -12 -10
-9 -16 8 -13 52 -13 60 0 3 6 1 10 -4 10 -6 0 -11 5 -11 10 0 6 14 10 30 10
24 0 30 -4 28 -18 -2 -12 5 -18 26 -20 16 -2 32 0 37 5 16 16 -59 153 -83 153
-5 0 -20 -25 -34 -55z m46 -29 c0 -7 -7 -13 -15 -13 -15 0 -20 18 -9 30 9 9
24 -2 24 -17z"/>
<path d="M250 191 c-23 -4 -31 -9 -22 -14 15 -10 16 -103 1 -113 -16 -9 9 -24
43 -24 29 0 45 14 28 25 -19 12 -10 35 13 35 57 0 72 71 20 91 -26 10 -29 10
-83 0z m62 -33 c6 -17 -1 -38 -13 -38 -5 0 -9 11 -9 25 0 26 14 34 22 13z"/>
<path d="M400 143 c-12 -32 -30 -66 -38 -75 -13 -16 -13 -18 2 -24 24 -9 47 3
40 21 -5 11 1 15 25 15 17 0 31 -4 31 -10 0 -5 -5 -10 -11 -10 -5 0 -7 -5 -4
-10 8 -14 72 -13 81 1 3 6 3 14 -2 18 -5 3 -22 33 -39 66 -40 79 -55 81 -85 8z
m43 -17 c3 -8 0 -17 -8 -19 -17 -7 -25 1 -18 19 7 18 19 18 26 0z"/>
<path d="M551 191 c-12 -8 -12 -12 -2 -25 13 -16 11 -75 -3 -108 -7 -15 -3
-18 17 -18 14 0 29 5 32 10 3 6 1 10 -4 10 -6 0 -11 11 -11 25 0 14 5 25 10
25 6 0 10 -6 10 -13 0 -7 7 -22 15 -33 14 -18 15 -18 27 14 7 17 16 32 21 32
4 0 7 -15 5 -32 l-3 -33 65 0 c56 0 65 2 62 18 -2 13 4 17 29 17 25 0 29 -3
20 -13 -6 -8 -8 -17 -4 -20 8 -8 67 -9 75 -2 3 3 -11 38 -31 78 -46 92 -63 94
-96 13 -27 -67 -38 -81 -55 -71 -8 5 -11 29 -8 69 3 59 2 61 -22 61 -16 0 -29
-8 -36 -23 -22 -44 -30 -45 -52 -8 -22 37 -36 43 -61 27z m283 -66 c4 -10 -1
-15 -14 -15 -13 0 -18 5 -14 15 4 8 10 15 14 15 4 0 10 -7 14 -15z"/>
<path d="M946 191 c-14 -5 -16 -10 -8 -15 15 -9 16 -98 0 -114 -14 -14 9 -25
43 -20 20 3 22 9 23 75 1 83 -8 94 -58 74z"/>
<path d="M1083 179 c-4 -13 -19 -47 -33 -77 -22 -42 -25 -55 -14 -59 22 -8 44
5 38 22 -5 11 1 15 25 15 17 0 31 -4 31 -10 0 -5 -5 -10 -11 -10 -5 0 -7 -5
-4 -10 6 -10 68 -14 77 -5 3 3 -11 38 -31 78 -38 76 -68 97 -78 56z m30 -53
c3 -8 0 -17 -8 -19 -17 -7 -25 1 -18 19 7 18 19 18 26 0z"/>
</g>
</svg>
