<?xml version="1.0" encoding="utf-8"?>
<!-- Generator: Adobe Illustrator 23.0.4, SVG Export Plug-In . SVG Version: 6.00 Build 0)  -->
<svg version="1.1" id="Livello_1" xmlns="http://www.w3.org/2000/svg" xmlns:xlink="http://www.w3.org/1999/xlink" x="0px" y="0px"
	 width="453.7px" height="170.8px" viewBox="0 0 453.7 170.8" style="enable-background:new 0 0 453.7 170.8;" xml:space="preserve"
	>
<style type="text/css">
	.st0{fill:#1D1E1B;}
	.st1{fill:#FFB8CA;}
	.st2{fill:#C6AE35;}
</style>
<title>Palermo</title>
<g>
	<g id="Livello_1-2">
		<path class="st0" d="M36.3,59.2c0,0-13.4-14.4-36.3-0.6c0,0,4.7-1.5,14.6,9.3l92,100.7c0.5-9.2,2.2-18.3,5.3-27L36.3,59.2z"/>
		<path class="st1" d="M53.8,32.9c0,0-13.4-14.4-36.3-0.6c0,0,4.7-1.5,14.6,9.3l83.2,91.1c3.1-7.2,6.9-14.1,11.1-20.6L53.8,32.9z"/>
		<path class="st0" d="M71.3,6.6c0,0-13.4-14.4-36.3-0.6c0,0,4.7-1.5,14.6,9.3l81.8,89.5c4.4-6,9.1-11.8,14.2-17.3L71.3,6.6z"/>
		<path class="st2" d="M213.4,134.8h-20.9v7.6h2.6v27.8h9.1v-9.4h9.2c7.3,0,13.6-4.9,13.6-12.9C227,138.9,220.7,134.8,213.4,134.8
			 M212,153.2h-7.8v-10.8h7.8c3.2,0,5.6,2,5.6,5.5c0,2.9-2.3,5.3-5.2,5.4C212.3,153.3,212.1,153.3,212,153.2z"/>
		<path class="st2" d="M240.6,134.8h-5.9v7.6h1.3l-11.2,27.8h9.2l2.6-6.5H252l2.5,6.5h9.2l-14-35.4L240.6,134.8L240.6,134.8z
			 M238.8,157.3l5.6-13.9l5.3,13.9H238.8z"/>
		<polygon class="st2" points="275.3,134.8 266.2,134.8 266.2,170.2 293.6,170.2 293.6,162.6 275.3,162.6 		"/>
		<polygon class="st2" points="296.8,170.2 326.4,170.2 326.4,162.6 305.5,162.6 305.5,155.9 322.5,155.9 322.5,148.5 305.5,148.5 
			305.5,142.4 326.4,142.4 326.4,134.8 296.8,134.8 		"/>
		<path class="st2" d="M363.5,163.2c-3.4,0-6.7-3.1-10-6.1c5.6-1.1,9.6-5.1,9.6-10.7c0-8.3-7-11.7-14.1-11.7h-20.1v7.6h2.6v27.8h9.1
			v-12.8h2c4.8,3.2,11,13.3,19.5,13.3c2.1,0,4.3-0.5,6.2-1.4l-0.9-6.9C366.1,163,364.8,163.2,363.5,163.2 M348.8,151.2h-8.2v-8.8
			h8.2c3,0,4.9,1.7,4.9,4.4S351.8,151.2,348.8,151.2L348.8,151.2z"/>
		<polygon class="st2" points="391.6,149.6 378.5,134.8 370.6,134.8 370.6,170.2 379.8,170.2 379.8,148.6 390.8,161.4 392.4,161.4 
			403.5,148.6 403.5,170.2 412.6,170.2 412.6,134.8 404.7,134.8 		"/>
		<path class="st2" d="M434.6,134.3c-10.8,0-18.9,7.8-18.9,18.3s8.1,18.2,18.9,18.2s19-7.8,19-18.2S445.5,134.3,434.6,134.3
			 M434.7,162.5c-5.5,0-10-4.5-10-10s4.5-10,10-10s10,4.5,10,10S440.2,162.5,434.7,162.5z"/>
		<path class="st0" d="M195.6,64.4L195.6,64.4l-18-7.4l4.4,2.8l-0.1,0.4C179.5,68.2,192.3,73,195.6,64.4"/>
		<path class="st0" d="M244.1,72.2c0-39.8-26.7-57.9-57.7-57.9h-86.1c19.7,6.6,67.1,21.9,82.3,26.8c1.4,0.4,2.8,0.8,4.1,1.3l0.7,0.2
			h-0.1c4.9,1.7,9.5,4.1,13.7,7c7,4.5,7.4,10.3,12.3,16.8c5.5,4.9,10.5,5.9,14.2,12c5.1,9.4,2.1,13.8-0.9,26.6
			c-0.5-3.9-2.4-7.8-6.3-9.8c-11.4-5.9-39.9,5.3-44.9,7.3c-12.5,5.4-45.5,23.7-62.5,68.1h34c3.1-8.2,7.5-15.9,13.1-22.6
			c10.4-12.3,22.4-16.6,32.4-19c5.9-1.4,11.1-2.7,15-4C230.7,117.7,244.2,96,244.1,72.2"/>
	</g>
</g>
</svg>
